<svg width="120" height="108" viewBox="0 0 120 108" fill="none" xmlns="http://www.w3.org/2000/svg">
<path d="M88.6293 103.597C91.0068 107.218 95.9107 108.262 99.1905 105.432C106.907 98.7765 112.835 90.2335 116.36 80.5808C120.786 68.461 121.187 55.2373 117.503 42.8717C113.82 30.506 106.248 19.657 95.9123 11.9343C85.5761 4.21165 73.0258 0.0266206 60.1232 0.000126493C47.2206 -0.0263676 34.6532 4.10708 24.2854 11.7873C13.9176 19.4675 6.3017 30.2852 2.56761 42.6356C-1.16648 54.9861 -0.819833 68.2113 3.55611 80.3491C7.04131 90.0163 12.9345 98.5835 20.6232 105.271C23.8914 108.114 28.7995 107.09 31.1919 103.48C33.5843 99.8687 32.5352 95.046 29.402 92.0552C24.4621 87.3398 20.6521 81.5203 18.312 75.0294C15.0801 66.0646 14.824 56.2969 17.5819 47.1751C20.3398 38.0534 25.9647 30.0637 33.6221 24.3913C41.2795 18.7189 50.5615 15.6661 60.091 15.6857C69.6205 15.7052 78.8898 18.7962 86.5239 24.5C94.1579 30.2037 99.75 38.2165 102.47 47.3494C105.191 56.4824 104.895 66.2491 101.626 75.2004C99.2592 81.6817 95.4253 87.4855 90.4661 92.1806C87.3206 95.1585 86.2517 99.9769 88.6293 103.597Z" fill="#E8EBED"/>
<path d="M11.1398 41.7501C7.08217 40.2346 2.50952 42.2908 1.53575 46.5114C-0.901692 57.0759 -0.441317 68.1561 2.94252 78.5592C6.32635 88.9623 12.4726 98.1931 20.6587 105.302C23.9291 108.142 28.8364 107.115 31.226 103.502C33.6155 99.8894 32.5626 95.0675 29.4271 92.0792C24.1366 87.0371 20.1445 80.7343 17.8588 73.7073C15.5732 66.6804 15.0935 59.2351 16.4053 52.0455C17.1827 47.7844 15.1974 43.2657 11.1398 41.7501Z" fill="#55DB33"/>
<path d="M68.3777 51.8905C67.4946 51.8902 66.7628 51.1638 66.9086 50.2904C67.2349 48.3348 68.1533 46.5151 69.5561 45.0946C71.3356 43.2926 73.7487 42.2806 76.2646 42.2813C78.7805 42.282 81.1931 43.2952 82.9717 45.0982C84.3778 46.5236 85.2965 48.3503 85.6193 50.3124C85.7621 51.1805 85.0411 51.8949 84.1653 51.8947C83.2821 51.8945 82.5832 51.1621 82.3647 50.3019C82.0863 49.2054 81.5224 48.1938 80.719 47.3794C79.5376 46.1817 77.935 45.5087 76.2638 45.5082C74.5926 45.5078 72.9897 46.18 71.8076 47.377C70.9988 48.196 70.4324 49.2149 70.1552 50.3191C69.9415 51.1703 69.2536 51.8907 68.3777 51.8905Z" fill="#55DB33"/>
<path d="M35.8538 52.1053C34.9707 52.1051 34.2389 51.3786 34.3847 50.5052C34.711 48.5497 35.6294 46.7299 37.0322 45.3094C38.8117 43.5074 41.2248 42.4955 43.7407 42.4961C46.2566 42.4968 48.6692 43.5101 50.4478 45.313C51.8539 46.7384 52.7726 48.5651 53.0954 50.5272C53.2382 51.3954 52.5172 52.1098 51.6413 52.1095C50.7582 52.1093 50.0592 51.3769 49.8408 50.5167C49.5624 49.4203 48.9985 48.4086 48.1951 47.5942C47.0137 46.3966 45.4111 45.7235 43.7399 45.7231C42.0687 45.7226 40.4657 46.3948 39.2837 47.5918C38.4749 48.4109 37.9084 49.4297 37.6313 50.5339C37.4176 51.3852 36.7296 52.1055 35.8538 52.1053Z" fill="#55DB33"/>
<path d="M77.8249 80.6162C78.9152 81.7064 78.9232 83.4864 77.7298 84.4627C75.6134 86.1942 73.2507 87.6096 70.7151 88.6599C67.318 90.067 63.677 90.7913 60 90.7913C56.323 90.7913 52.682 90.067 49.2849 88.6599C46.7493 87.6096 44.3866 86.1942 42.2702 84.4627C41.0768 83.4864 41.0848 81.7064 42.1751 80.6162C43.2653 79.5259 45.0237 79.5419 46.2409 80.4883C47.8219 81.7175 49.5637 82.7318 51.4216 83.5014C54.1413 84.6279 57.0562 85.2077 60 85.2077C62.9438 85.2077 65.8587 84.6279 68.5784 83.5014C70.4363 82.7318 72.1781 81.7175 73.7591 80.4883C74.9763 79.5419 76.7347 79.5259 77.8249 80.6162Z" fill="#55DB33"/>
</svg>
