<svg width="120" height="109" viewBox="0 0 120 109" fill="none" xmlns="http://www.w3.org/2000/svg">
<path d="M89.3863 103.091C91.8267 106.669 96.748 107.627 99.9779 104.741C107.515 98.0069 113.261 89.4463 116.629 79.8271C120.865 67.7292 121.115 54.5928 117.343 42.3425C113.571 30.0921 105.974 19.3718 95.6671 11.7521C85.3598 4.13246 72.8832 0.0139632 60.0652 3.54196e-05C47.2472 -0.0138923 34.7617 4.07749 24.4378 11.6747C14.1139 19.272 6.49442 29.9758 2.69557 42.2179C-1.10327 54.46 -0.881744 67.597 3.32769 79.704C6.67465 89.3305 12.4029 97.9035 19.9249 104.654C23.1486 107.547 28.072 106.6 30.5202 103.027C32.9683 99.4537 31.9943 94.6153 28.9079 91.5762C24.0853 86.8275 20.3887 81.0112 18.1433 74.5529C15.0343 65.6109 14.8707 55.9083 17.6764 46.8666C20.4822 37.8249 26.1097 29.9194 33.7347 24.3082C41.3596 18.6971 50.5811 15.6753 60.0482 15.6856C69.5152 15.6959 78.7301 18.7377 86.3428 24.3654C93.9555 29.9931 99.5659 37.9108 102.352 46.9586C105.138 56.0064 104.953 65.7086 101.825 74.6438C99.5655 81.0972 95.8563 86.9055 91.0234 91.6437C87.9304 94.6761 86.9458 99.5124 89.3863 103.091Z" fill="#E8EBED"/>
<path d="M60.2471 7.84278C60.2471 3.51133 56.7208 -0.0527696 52.4263 0.51181C42.4357 1.82524 32.8917 5.6408 24.7055 11.6596C14.4034 19.234 6.79058 29.9017 2.97725 42.1068C-0.836075 54.3118 -0.650455 67.416 3.50705 79.5082C6.81065 89.1168 12.4848 97.6871 19.9507 104.455C23.1599 107.364 28.088 106.441 30.5539 102.88C33.0198 99.3189 32.0698 94.4758 28.9986 91.4214C24.2155 86.6646 20.556 80.8526 18.3404 74.4082C15.2697 65.4773 15.1326 55.7989 17.9491 46.7845C20.7655 37.7701 26.3881 29.8913 33.997 24.297C39.4874 20.2603 45.8047 17.5654 52.445 16.3777C56.7088 15.6151 60.2471 12.1742 60.2471 7.84278Z" fill="#EBB502"/>
<path d="M42.1749 84.7021C41.0847 83.6118 41.0822 81.8374 42.2824 80.868C44.4109 79.1486 46.7854 77.7452 49.3323 76.7062C52.7445 75.3143 56.3992 74.6038 60.0878 74.6155C63.7764 74.6271 67.4265 75.3606 70.8299 76.774C73.3702 77.8289 75.7358 79.2473 77.8534 80.98C79.0475 81.957 79.0338 83.7314 77.9367 84.8147C76.8396 85.8981 75.0758 85.8766 73.8577 84.9293C72.2757 83.6991 70.5315 82.6824 68.6702 81.9094C65.9456 80.7779 63.0233 80.1907 60.0703 80.1814C57.1172 80.1721 54.1913 80.7408 51.4595 81.8552C49.5934 82.6164 47.8429 83.6221 46.2532 84.8424C45.0291 85.7819 43.2652 85.7923 42.1749 84.7021Z" fill="#EBB502"/>
<path d="M51.637 45.0939C52.5212 45.0924 53.2531 45.818 53.1061 46.6914C52.7763 48.6503 51.8541 50.4743 50.448 51.8994C48.6647 53.7068 46.2491 54.7245 43.7326 54.7286C41.216 54.7327 38.8048 53.7229 37.0291 51.9214C35.624 50.4957 34.708 48.6667 34.3897 46.7008C34.2494 45.8346 34.9705 45.1211 35.8456 45.1197C36.7299 45.1183 37.4291 45.8498 37.6457 46.7098C37.9221 47.8073 38.4843 48.8194 39.2866 49.6334C40.4661 50.8301 42.0678 51.5008 43.7394 51.4981C45.411 51.4954 47.0156 50.8194 48.2002 49.6188C49.0122 48.7959 49.5812 47.7726 49.86 46.6644C50.0737 45.8146 50.7619 45.0953 51.637 45.0939Z" fill="#EBB502"/>
<path d="M84.1311 44.8803C85.0154 44.8789 85.7473 45.6045 85.6002 46.4779C85.2704 48.4367 84.3482 50.2608 82.9421 51.6859C81.1588 53.4932 78.7432 54.5109 76.2267 54.515C73.7102 54.5191 71.2989 53.5094 69.5233 51.7078C68.1181 50.2822 67.2022 48.4531 66.8838 46.4873C66.7435 45.621 67.4646 44.9076 68.3398 44.9062C69.224 44.9047 69.9233 45.6362 70.1398 46.4962C70.4162 47.5938 70.9784 48.6058 71.7808 49.4199C72.9602 50.6166 74.5619 51.2873 76.2336 51.2846C77.9052 51.2818 79.5098 50.6058 80.6943 49.4053C81.5063 48.5823 82.0754 47.5591 82.3541 46.4508C82.5679 45.6011 83.256 44.8818 84.1311 44.8803Z" fill="#EBB502"/>
</svg>
