<svg width="121" height="109" viewBox="0 0 121 109" fill="none" xmlns="http://www.w3.org/2000/svg">
<path d="M89.1936 103.078C91.6323 106.662 96.5585 107.62 99.7868 104.728C107.301 97.9956 113.03 89.44 116.389 79.8271C120.616 67.7292 120.866 54.5928 117.101 42.3425C113.337 30.0921 105.756 19.3718 95.47 11.7521C85.1839 4.13246 72.733 0.0139632 59.9414 3.54196e-05C47.1499 -0.0138923 34.69 4.07749 24.3875 11.6747C14.0849 19.272 6.48103 29.9758 2.69002 42.2179C-1.10099 54.46 -0.879927 67.597 3.32083 79.704C6.6587 89.3242 12.3698 97.8922 19.8691 104.641C23.091 107.54 28.0193 106.593 30.4658 103.014C32.9056 99.4461 31.9336 94.619 28.8559 91.5837C24.0396 86.8336 20.3479 81.0146 18.1059 74.5529C15.0033 65.6109 14.8401 55.9083 17.64 46.8666C20.44 37.8249 26.0559 29.9194 33.6652 24.3082C41.2744 18.6971 50.4769 15.6753 59.9244 15.6856C69.3719 15.6959 78.5679 18.7377 86.1649 24.3654C93.7619 29.9931 99.3608 37.9108 102.141 46.9586C104.921 56.0064 104.737 65.7086 101.615 74.6438C99.3592 81.1006 95.6549 86.9115 90.8283 91.6511C87.744 94.6798 86.7615 99.5048 89.1936 103.078Z" fill="#E8EBED"/>
<path d="M111.897 67.2534C116.187 67.8557 120.207 64.8596 120.245 60.5283C120.315 52.5259 118.784 44.5625 115.712 37.116C111.639 27.2438 105.004 18.6377 96.494 12.1862C87.9836 5.73459 77.9055 1.67137 67.3002 0.415992C56.6948 -0.839384 45.9466 0.758582 36.1652 5.04491C26.3837 9.33125 17.9236 16.1506 11.6581 24.7989C5.39271 33.4473 1.54908 43.6111 0.524074 54.2412C-0.500932 64.8713 1.32983 75.5823 5.82736 85.2685C9.21985 92.5747 14.0369 99.0982 19.9683 104.471C23.1787 107.378 28.1063 106.454 30.5708 102.892C33.0352 99.3297 32.0834 94.4868 29.011 91.4337C25.3082 87.7542 22.2698 83.4345 20.0541 78.6626C16.7323 71.5087 15.3802 63.5978 16.1372 55.7467C16.8943 47.8956 19.7331 40.3888 24.3605 34.0014C28.988 27.614 35.2365 22.5774 42.4608 19.4116C49.6851 16.2458 57.6235 15.0656 65.4563 15.9928C73.2891 16.92 80.7325 19.921 87.0181 24.6859C93.3036 29.4509 98.2035 35.8071 101.212 43.0984C103.218 47.9619 104.335 53.1238 104.53 58.3402C104.693 62.6686 107.608 66.651 111.897 67.2534Z" fill="#FF7272"/>
<path d="M42.1749 84.7021C41.0847 83.6118 41.0822 81.8374 42.2824 80.868C44.4109 79.1486 46.7854 77.7452 49.3323 76.7062C52.7445 75.3143 56.3992 74.6038 60.0878 74.6155C63.7764 74.6271 67.4265 75.3606 70.8299 76.774C73.3702 77.8289 75.7358 79.2473 77.8534 80.98C79.0475 81.957 79.0338 83.7314 77.9367 84.8147C76.8396 85.8981 75.0758 85.8766 73.8577 84.9293C72.2757 83.6991 70.5315 82.6824 68.6702 81.9094C65.9456 80.7779 63.0233 80.1907 60.0703 80.1814C57.1172 80.1721 54.1913 80.7408 51.4595 81.8552C49.5934 82.6164 47.8429 83.6221 46.2532 84.8424C45.0291 85.7819 43.2652 85.7923 42.1749 84.7021Z" fill="#FF7272"/>
<path d="M51.637 45.0939C52.5212 45.0924 53.2531 45.818 53.1061 46.6914C52.7763 48.6503 51.8541 50.4743 50.448 51.8994C48.6647 53.7068 46.2491 54.7245 43.7326 54.7286C41.216 54.7327 38.8048 53.7229 37.0291 51.9214C35.624 50.4957 34.708 48.6667 34.3897 46.7008C34.2494 45.8346 34.9705 45.1211 35.8456 45.1197C36.7299 45.1183 37.4291 45.8498 37.6457 46.7098C37.9221 47.8073 38.4843 48.8194 39.2866 49.6334C40.4661 50.8301 42.0678 51.5008 43.7394 51.4981C45.411 51.4954 47.0156 50.8194 48.2002 49.6188C49.0122 48.7959 49.5812 47.7726 49.86 46.6644C50.0737 45.8146 50.7619 45.0953 51.637 45.0939Z" fill="#FF7272"/>
<path d="M84.1311 44.8803C85.0154 44.8789 85.7473 45.6045 85.6002 46.4779C85.2704 48.4367 84.3482 50.2608 82.9421 51.6859C81.1588 53.4932 78.7432 54.5109 76.2267 54.515C73.7102 54.5191 71.2989 53.5094 69.5233 51.7078C68.1181 50.2822 67.2022 48.4531 66.8838 46.4873C66.7435 45.621 67.4646 44.9076 68.3398 44.9062C69.224 44.9047 69.9233 45.6362 70.1398 46.4962C70.4162 47.5938 70.9784 48.6058 71.7808 49.4199C72.9602 50.6166 74.5619 51.2873 76.2336 51.2846C77.9052 51.2818 79.5098 50.6058 80.6943 49.4053C81.5063 48.5823 82.0754 47.5591 82.3541 46.4508C82.5679 45.6011 83.256 44.8818 84.1311 44.8803Z" fill="#FF7272"/>
</svg>
